<svg width="190" height="195" viewBox="0 0 190 195" fill="none" xmlns="http://www.w3.org/2000/svg">
<g clip-path="url(#clip0_2160_7864)">
<path d="M124.77 107.79H21.9005C12.0005 107.79 3.98047 99.7705 3.98047 89.8705V21.9005C3.98047 12.0005 12.0005 3.98047 21.9005 3.98047H124.76C146.06 3.98047 163.33 31.5805 163.33 42.5505V69.2305C163.33 90.5305 146.06 107.8 124.76 107.8L124.77 107.79Z" fill="#E21010"/>
<path d="M111.43 111.77H28.1C12.6 111.77 0 99.16 0 83.67V28.1C0 12.61 12.61 0 28.1 0H111.43C142.25 0 167.32 25.07 167.32 55.89C167.32 86.71 142.25 111.78 111.43 111.78V111.77ZM28.1 7.96C16.99 7.96 7.96 17 7.96 28.1V83.67C7.96 94.78 17 103.81 28.1 103.81H111.43C137.86 103.81 159.36 82.31 159.36 55.88C159.36 29.45 137.86 7.96 111.43 7.96H28.1Z" fill="black"/>
<path d="M185.581 115.461C185.581 129.791 179.771 142.771 170.381 152.171C160.991 161.561 148.011 167.371 133.671 167.371H81.4607L59.6107 188.851L38.1307 167.371H28.0907C14.7607 167.371 3.9707 156.571 3.9707 143.251V87.6805C3.9707 74.3605 14.7607 63.5605 28.0907 63.5605H133.671C162.341 63.5605 185.571 86.8105 185.571 115.471L185.581 115.461Z" fill="white"/>
<path d="M59.59 194.45L36.49 171.35H28.1C12.61 171.35 0 158.74 0 143.25V87.6703C0 72.1803 12.61 59.5703 28.1 59.5703H133.68C164.49 59.5703 189.56 84.6403 189.56 115.46C189.56 130.38 183.75 144.41 173.2 154.98C162.64 165.53 148.61 171.35 133.68 171.35H83.1L59.59 194.45ZM28.1 67.5303C16.99 67.5303 7.96 76.5703 7.96 87.6703V143.25C7.96 154.36 17 163.39 28.1 163.39H39.79L59.64 183.24L79.84 163.39H133.68C146.49 163.39 158.52 158.41 167.57 149.36C176.62 140.3 181.6 128.26 181.6 115.47C181.6 89.0403 160.1 67.5303 133.67 67.5303H28.1Z" fill="black"/>
<path d="M53.6392 126.95C59.4051 126.95 64.0792 122.276 64.0792 116.51C64.0792 110.744 59.4051 106.07 53.6392 106.07C47.8734 106.07 43.1992 110.744 43.1992 116.51C43.1992 122.276 47.8734 126.95 53.6392 126.95Z" fill="#E21010"/>
<path d="M94.7798 126.95C100.546 126.95 105.22 122.276 105.22 116.51C105.22 110.744 100.546 106.07 94.7798 106.07C89.014 106.07 84.3398 110.744 84.3398 116.51C84.3398 122.276 89.014 126.95 94.7798 126.95Z" fill="#E21010"/>
<path d="M135.92 126.95C141.686 126.95 146.36 122.276 146.36 116.51C146.36 110.744 141.686 106.07 135.92 106.07C130.155 106.07 125.48 110.744 125.48 116.51C125.48 122.276 130.155 126.95 135.92 126.95Z" fill="#E21010"/>
</g>
<defs>
<clipPath id="clip0_2160_7864">
<rect width="190" height="195" fill="white"/>
</clipPath>
</defs>
</svg>
